<?xml version="1.0" encoding="UTF-8"?>
<svg width="16px" height="16px" viewBox="0 0 16 16" version="1.1" xmlns="http://www.w3.org/2000/svg" xmlns:xlink="http://www.w3.org/1999/xlink">
    <!-- Generator: Sketch 55.2 (78181) - https://sketchapp.com -->
    <title>Copy Icon</title>
    <desc>Created with Sketch.</desc>
    <g id="Desktop" stroke="none" stroke-width="1" fill="none" fill-rule="evenodd">
        <g id="Success-Onboarding/17.-Referral" transform="translate(-712.000000, -337.000000)" fill="#FFFFFF" fill-rule="nonzero">
            <g id="CHAT" transform="translate(324.000000, 189.000000)">
                <g id="REFFERAL">
                    <g id="Share" transform="translate(64.000000, 132.000000)">
                        <g id="LINK">
                            <g id="COPY" transform="translate(300.000000, 0.000000)">
                                <path d="M26,21 L33,21 C34.1045695,21 35,21.8954305 35,23 L35,30 C35,31.1045695 34.1045695,32 33,32 L26,32 C24.8954305,32 24,31.1045695 24,30 L24,23 C24,21.8954305 24.8954305,21 26,21 Z M26,22.5 C25.7238576,22.5 25.5,22.7238576 25.5,23 L25.5,30 C25.5,30.2761424 25.7238576,30.5 26,30.5 L33,30.5 C33.2761424,30.5 33.5,30.2761424 33.5,30 L33.5,23 C33.5,22.7238576 33.2761424,22.5 33,22.5 L26,22.5 Z M37,27 L37,25.5 L38,25.5 C38.2761424,25.5 38.5,25.2761424 38.5,25 L38.5,18 C38.5,17.7238576 38.2761424,17.5 38,17.5 L31,17.5 C30.7238576,17.5 30.5,17.7238576 30.5,18 L30.5,19 L29,19 L29,18 C29,16.8954305 29.8954305,16 31,16 L38,16 C39.1045695,16 40,16.8954305 40,18 L40,25 C40,26.1045695 39.1045695,27 38,27 L37,27 Z" id="Copy-Icon"></path>
                            </g>
                        </g>
                    </g>
                </g>
            </g>
        </g>
    </g>
</svg>