<?xml version="1.0" encoding="UTF-8"?>
<svg width="16px" height="14px" viewBox="0 0 16 14" version="1.1" xmlns="http://www.w3.org/2000/svg" xmlns:xlink="http://www.w3.org/1999/xlink">
    <!-- Generator: Sketch 55.2 (78181) - https://sketchapp.com -->
    <title>Path</title>
    <desc>Created with Sketch.</desc>
    <g id="Desktop" stroke="none" stroke-width="1" fill="none" fill-rule="evenodd">
        <g id="Success-Onboarding/17.-Referral" transform="translate(-884.000000, -338.000000)" fill="#FFFFFF" fill-rule="nonzero">
            <g id="CHAT" transform="translate(324.000000, 189.000000)">
                <g id="REFFERAL">
                    <g id="Share" transform="translate(64.000000, 132.000000)">
                        <g id="TWITTER" transform="translate(472.000000, 0.000000)">
                            <path d="M29.0260104,30.5 C35.0636255,30.5 38.3673469,25.4970472 38.3673469,21.1658465 C38.3673469,21.0250984 38.3673469,20.8843504 38.3609444,20.7436024 C39.0012005,20.2829724 39.5582233,19.7007874 40,19.0418307 C39.4109644,19.3041339 38.7771108,19.4768701 38.1112445,19.5600394 C38.789916,19.1569882 39.3085234,18.5108268 39.5582233,17.7431102 C38.9243697,18.1205709 38.220088,18.3892717 37.4709884,18.5364173 C36.8691477,17.8966535 36.017607,17.5 35.0764306,17.5 C33.2645058,17.5 31.7919168,18.9714567 31.7919168,20.7819882 C31.7919168,21.0378937 31.8239296,21.2874016 31.8751501,21.5305118 C29.1476591,21.3961614 26.727491,20.0846457 25.1076431,18.101378 C24.8259304,18.5875984 24.6658663,19.1505906 24.6658663,19.7519685 C24.6658663,20.890748 25.2484994,21.8951772 26.1256503,22.4837598 C25.5878351,22.4645669 25.0820328,22.3174213 24.6402561,22.074311 C24.6402561,22.0871063 24.6402561,22.0999016 24.6402561,22.1190945 C24.6402561,23.7057087 25.7735094,25.0364173 27.2717087,25.3371063 C26.9963986,25.413878 26.7082833,25.4522638 26.4073629,25.4522638 C26.1960784,25.4522638 25.9911965,25.4330709 25.7927171,25.394685 C26.2088836,26.6998031 27.4253701,27.6466535 28.8595438,27.6722441 C27.7326931,28.5551181 26.3177271,29.0797244 24.7811124,29.0797244 C24.5186074,29.0797244 24.2561024,29.0669291 24,29.0349409 C25.4469788,29.9562008 27.1756703,30.5 29.0260104,30.5" id="Path"></path>
                        </g>
                    </g>
                </g>
            </g>
        </g>
    </g>
</svg>