<svg width="299" height="113" viewBox="0 0 299 113" fill="none" xmlns="http://www.w3.org/2000/svg">
<path fill-rule="evenodd" clip-rule="evenodd" d="M25.5783 113C11.3553 112.664 0 101.021 0 86.7724V0H25.5783V113ZM118.025 112.716H92.4463V101.707C87.7096 105.306 83.3755 108.04 79.444 109.91C75.5125 111.781 70.8232 112.716 65.376 112.716C56.5656 112.716 49.7803 110.183 45.0199 105.116C40.2595 100.05 37.8793 92.5687 37.8793 82.6725V30.7536H63.5997V70.3143C63.5997 74.339 63.7299 77.689 63.9905 80.3642C64.251 83.0395 64.8549 85.2531 65.8023 87.005C66.7022 88.757 68.064 90.0354 69.8877 90.8404C71.7113 91.6453 74.2573 92.0478 77.5256 92.0478C79.7045 92.0478 82.1202 91.6453 84.7728 90.8404C87.4254 90.0354 89.9832 88.8517 92.4463 87.2891V30.7536H118.025V112.716ZM215.233 112.716H185.463L163.082 77.9849L156.119 86.4368V112.716H130.54V0C144.667 0 156.119 11.469 156.119 25.6168V68.1835L183.686 32.9554L185.253 30.9283H214.834L213.172 32.9554L184.468 67.3312L215.233 112.716ZM299 72.0532C299 84.7404 295.293 94.7365 287.88 102.042C280.466 109.347 270.058 113 256.654 113C243.25 113 232.841 109.347 225.428 102.042C218.014 94.7365 214.308 84.7404 214.308 72.0532C214.308 59.2745 218.037 49.244 225.497 41.9614C232.956 34.6789 243.342 31.0377 256.654 31.0377C270.15 31.0377 280.581 34.7018 287.949 42.0301C295.316 49.3585 299 59.3661 299 72.0532V72.0532ZM268.497 90.809C270.104 88.8395 271.309 86.4693 272.112 83.6983C272.915 80.9273 273.317 77.0914 273.317 72.1906C273.317 67.6562 272.904 63.8547 272.077 60.786C271.251 57.7172 270.104 55.2669 268.635 53.4348C267.166 51.5569 265.398 50.2287 263.333 49.45C261.267 48.6714 259.041 48.2821 256.654 48.2821C254.267 48.2821 252.144 48.6027 250.285 49.2439C248.425 49.8852 246.647 51.1676 244.948 53.0913C243.433 54.8775 242.228 57.3279 241.333 60.4425C240.438 63.557 239.991 67.473 239.991 72.1906C239.991 76.4044 240.381 80.0571 241.161 83.1487C241.942 86.2403 243.089 88.7251 244.604 90.6029C246.073 92.3892 247.829 93.6945 249.871 94.519C251.914 95.3434 254.244 95.7556 256.86 95.7556C259.11 95.7556 261.256 95.3778 263.298 94.622C265.341 93.8663 267.074 92.5953 268.497 90.809Z" fill="#0042DA"/>
</svg>
